<svg id="visual" viewBox="0 0 900 600" width="900" height="600" xmlns="http://www.w3.org/2000/svg" xmlns:xlink="http://www.w3.org/1999/xlink" version="1.1"><path d="M0 533L21.5 529.2C43 525.3 86 517.7 128.8 479.5C171.7 441.3 214.3 372.7 257.2 354.7C300 336.7 343 369.3 385.8 398C428.7 426.7 471.3 451.3 514.2 464.5C557 477.7 600 479.3 642.8 452.8C685.7 426.3 728.3 371.7 771.2 376C814 380.3 857 443.7 878.5 475.3L900 507L900 601L878.5 601C857 601 814 601 771.2 601C728.3 601 685.7 601 642.8 601C600 601 557 601 514.2 601C471.3 601 428.7 601 385.8 601C343 601 300 601 257.2 601C214.3 601 171.7 601 128.8 601C86 601 43 601 21.5 601L0 601Z" fill="#0066FF" stroke-linecap="round" stroke-linejoin="miter"></path></svg>